<?xml version="1.0" encoding="UTF-8"?>
<svg xmlns="http://www.w3.org/2000/svg" width="1500" height="390" viewBox="0 0 1500 390" role="img" aria-label="DJ ON logo preta sem fundo com J mais grosso">
  <title>DJ ON logo preta sem fundo com J mais grosso</title>
  <path id="D" fill="#000000" fill-rule="evenodd" d="M4 17 H190 C306 17 376 88 376 196 C376 303 306 376 190 376 H4 Z
M122 114 H181 C229 114 258 145 258 196 C258 247 229 281 181 281 H122 Z"/>
  <path id="J" fill="#000000" fill-rule="evenodd" d="M392 17 H652 V215 C652 326 593 385 498 385 C444 385 392 367 352 331 L427 256 C444 286 468 305 497 305 C531 305 544 285 544 247 V117 H392 Z"/>
  <path id="O_play" fill="#000000" fill-rule="evenodd" d="M917 4 C1020.83 4 1105 88.17 1105 192 C1105 295.83 1020.83 380 917 380 C813.17 380 729 295.83 729 192 C729 88.17 813.17 4 917 4 Z
M846 84 C837 79 828 86 828 97 V292 C828 307 843 316 856 309 L1060 207 C1075 199 1075 181 1060 174 L846 84 Z"/>
  <path id="N" fill="#000000" fill-rule="evenodd" d="M1153 14 H1258 L1384 176 V14 H1495 V368 H1390 L1265 195 V368 H1153 Z"/>
</svg>
